<?xml version="1.0" encoding="utf-8"?>
<!-- Generator: Adobe Illustrator 27.5.0, SVG Export Plug-In . SVG Version: 6.00 Build 0)  -->
<svg version="1.1" xmlns="http://www.w3.org/2000/svg" xmlns:xlink="http://www.w3.org/1999/xlink" x="0px" y="0px"
	 viewBox="0 0 3710 3710" style="enable-background:new 0 0 3710 3710;" xml:space="preserve">
<g id="Background">
	<g>
		<g>
			<rect style="fill:#FFFFFF;" width="3710" height="3710"/>
		</g>
	</g>
</g>
<g id="Illustration">
	<g>
		<linearGradient id="SVGID_1_" gradientUnits="userSpaceOnUse" x1="3605.4541" y1="4059.7148" x2="1121.6459" y2="974.9806">
			<stop  offset="0" style="stop-color:#DAE3FE"/>
			<stop  offset="1" style="stop-color:#E9EFFD"/>
		</linearGradient>
		<path style="fill:url(#SVGID_1_);" d="M2922.143,2843.207c-57.052,60.062-111.034,98.795-153.685,129.397
			c-501.345,359.721-1094.57,254.864-1220.647,229.257c-186.176-37.813-546.05-110.906-806.233-416.875
			c-393.635-462.906-332.34-1192.202-27.01-1673.621c55.85-88.06,350.863-576.811,950.477-655.191
			c362.88-47.435,785.881,48.236,1092.208,304.876C3400.258,1299.761,3354.483,2388.053,2922.143,2843.207z"/>
		<g>
			<path style="fill:#BDD0FB;" d="M1071.261,611.853c-7.419-10.883,6.35-25.32,19.876-20.93
				c137.352,44.565,486.714,201.876,595.091,670.175c135.975,587.55,348.719,739.12,563.824,798.711
				c0,0-252.274,30.173-476.321-120.479C1223.644,1569.443,1203.176,805.363,1071.261,611.853z"/>
			<path style="fill:#FFFFFF;" d="M1217.945,755.235c36.985,56.995,72.62,114.728,105.711,173.763
				c33.449,58.836,64.786,118.736,93.889,179.615c28.828,60.997,56.317,122.586,80.72,185.394
				c24.728,62.679,46.308,126.51,67.717,190.688c21.809,63.998,43.36,128.618,72.604,190.792
				c29.117,62.073,67.343,121.278,117.243,171.362c12.456,12.474,25.239,24.77,38.779,36.193
				c13.285,11.675,27.209,22.772,41.376,33.619c28.474,21.562,58.787,41.316,90.825,58.808
				c64.202,34.833,135.262,60.299,209.019,76.608c7.763,1.716,16.236-2.703,18.926-9.872c2.641-7.038-1.278-14.111-8.771-15.989
				l-0.053-0.013c-17.763-4.436-35.429-9.054-52.724-14.387c-8.711-2.538-17.24-5.43-25.841-8.171
				c-8.442-3.041-17.053-5.777-25.355-9.059c-33.505-12.599-65.746-27.392-96.366-44.368
				c-61.391-33.628-116.564-76.198-164.336-123.96c-23.565-24.158-44.923-50.015-63.817-77.462
				c-18.87-27.464-35.264-56.486-49.722-86.537c-28.936-60.135-50.876-123.883-73.215-187.69
				c-22.439-63.788-45.495-127.705-71.553-190.408c-12.929-31.387-26.512-62.506-40.736-93.335
				c-7.008-15.459-14.364-30.764-21.686-46.081c-7.494-15.239-15.086-30.43-22.82-45.55
				c-31.071-60.421-64.285-119.776-99.656-177.916c-35.7-57.96-73.205-114.894-113.246-170.213c-1.145-1.581-3.599-1.9-5.483-0.712
				C1217.543,751.505,1216.93,753.664,1217.945,755.235z"/>
		</g>
		<g>
			<g>
				<path style="fill:#91B3FA;" d="M1856.082,1841.304c-7.59,18.559-31.667,23.334-45.95,9.264
					c-78.816-77.639-281.805-317.302-245.405-697.485c30.738-321.047,16.897-498.053,5.045-577.972
					c-2.506-16.9,18.019-27.176,30.071-15.068C1732.819,693.63,2131.098,1168.828,1856.082,1841.304z"/>
				<path style="fill:#FFFFFF;" d="M1828.949,1840.358c-0.425,0.258-0.88,0.477-1.364,0.655c-4.057,1.492-8.557-0.588-10.048-4.646
					c-1.691-4.6-168.83-465.142-146.256-913.467c0.219-4.314,3.894-7.639,8.213-7.426c4.318,0.219,7.641,3.894,7.426,8.214
					c-22.411,445.062,143.632,902.708,145.312,907.277C1833.546,1834.539,1832.089,1838.455,1828.949,1840.358z"/>
			</g>
		</g>
		<g>
			
				<linearGradient id="SVGID_00000092448354943747465890000002425161916617577887_" gradientUnits="userSpaceOnUse" x1="3802.5586" y1="538.4937" x2="3243.4292" y2="1051.8763">
				<stop  offset="0" style="stop-color:#4F52FF"/>
				<stop  offset="1" style="stop-color:#4042E2"/>
			</linearGradient>
			<path style="fill:url(#SVGID_00000092448354943747465890000002425161916617577887_);" d="M1885.29,3104.402h1012.129
				c5.667,0,10.26-4.594,10.26-10.261V574.33c0-5.667-4.594-10.261-10.26-10.261H1885.29c-5.667,0-10.261,4.594-10.261,10.261
				v2519.811C1875.03,3099.809,1879.624,3104.402,1885.29,3104.402z"/>
			
				<linearGradient id="SVGID_00000109031025188103734470000002813358334830310574_" gradientUnits="userSpaceOnUse" x1="3316.3804" y1="60.6839" x2="1699.5184" y2="4918.4609">
				<stop  offset="0" style="stop-color:#4F52FF"/>
				<stop  offset="1" style="stop-color:#4042E2"/>
			</linearGradient>
			<path style="fill:url(#SVGID_00000109031025188103734470000002813358334830310574_);" d="M2226.007,3104.402h1000.129
				c8.98,0,16.26-7.28,16.26-16.26V580.33c0-8.98-7.28-16.26-16.26-16.26H2226.007c-8.98,0-16.26,7.28-16.26,16.26v2507.812
				C2209.747,3097.122,2217.027,3104.402,2226.007,3104.402z"/>
			<g>
				<path style="opacity:0.65;fill:#BDD0FB;" d="M3113.143,940.414h-789.36c-22.038,0-39.968-23.78-39.968-53.009V738.573
					c0-29.229,17.93-53.009,39.968-53.009h789.36c22.038,0,39.968,23.78,39.968,53.009v148.832
					C3153.111,916.634,3135.181,940.414,3113.143,940.414z M2323.783,698.817c-16.53,0-29.976,17.834-29.976,39.757v148.832
					c0,21.923,13.446,39.757,29.976,39.757h789.36c16.53,0,29.976-17.834,29.976-39.757V738.573
					c0-21.923-13.446-39.757-29.976-39.757H2323.783z"/>
				<path style="opacity:0.65;fill:#BDD0FB;" d="M3113.143,1348.176h-789.36c-22.038,0-39.968-23.78-39.968-53.009v-148.832
					c0-29.229,17.93-53.009,39.968-53.009h789.36c22.038,0,39.968,23.78,39.968,53.009v148.832
					C3153.111,1324.395,3135.181,1348.176,3113.143,1348.176z M2323.783,1106.578c-16.53,0-29.976,17.834-29.976,39.757v148.832
					c0,21.923,13.446,39.757,29.976,39.757h789.36c16.53,0,29.976-17.833,29.976-39.757v-148.832
					c0-21.923-13.446-39.757-29.976-39.757H2323.783z"/>
				<path style="opacity:0.65;fill:#BDD0FB;" d="M3113.143,1780.956h-789.36c-22.038,0-39.968-23.78-39.968-53.009v-148.832
					c0-29.229,17.93-53.009,39.968-53.009h789.36c22.038,0,39.968,23.78,39.968,53.009v148.832
					C3153.111,1757.176,3135.181,1780.956,3113.143,1780.956z M2323.783,1539.358c-16.53,0-29.976,17.833-29.976,39.757v148.832
					c0,21.923,13.446,39.757,29.976,39.757h789.36c16.53,0,29.976-17.833,29.976-39.757v-148.832
					c0-21.923-13.446-39.757-29.976-39.757H2323.783z"/>
				<path style="opacity:0.65;fill:#BDD0FB;" d="M3113.143,2188.717h-789.36c-22.038,0-39.968-23.78-39.968-53.009v-148.832
					c0-29.229,17.93-53.009,39.968-53.009h789.36c22.038,0,39.968,23.78,39.968,53.009v148.832
					C3153.111,2164.937,3135.181,2188.717,3113.143,2188.717z M2323.783,1947.12c-16.53,0-29.976,17.833-29.976,39.757v148.832
					c0,21.923,13.446,39.757,29.976,39.757h789.36c16.53,0,29.976-17.833,29.976-39.757v-148.832
					c0-21.923-13.446-39.757-29.976-39.757H2323.783z"/>
				<path style="opacity:0.65;fill:#BDD0FB;" d="M3108.147,2606.954h-789.36c-22.038,0-39.968-23.78-39.968-53.009v-148.832
					c0-29.229,17.93-53.009,39.968-53.009h789.36c22.038,0,39.968,23.78,39.968,53.009v148.832
					C3148.115,2583.174,3130.185,2606.954,3108.147,2606.954z M2318.787,2365.356c-16.53,0-29.976,17.834-29.976,39.757v148.832
					c0,21.923,13.446,39.757,29.976,39.757h789.36c16.53,0,29.976-17.834,29.976-39.757v-148.832
					c0-21.923-13.446-39.757-29.976-39.757H2318.787z"/>
				<path style="opacity:0.65;fill:#BDD0FB;" d="M3113.143,3024.558h-789.36c-22.038,0-39.968-23.78-39.968-53.009v-148.832
					c0-29.229,17.93-53.009,39.968-53.009h789.36c22.038,0,39.968,23.78,39.968,53.009v148.832
					C3153.111,3000.778,3135.181,3024.558,3113.143,3024.558z M2323.783,2782.96c-16.53,0-29.976,17.833-29.976,39.757v148.832
					c0,21.923,13.446,39.757,29.976,39.757h789.36c16.53,0,29.976-17.833,29.976-39.757v-148.832
					c0-21.923-13.446-39.757-29.976-39.757H2323.783z"/>
				<ellipse style="fill:#BDD0FB;" cx="2347.93" cy="807.889" rx="19.151" ry="18.208"/>
				<ellipse style="fill:#BDD0FB;" cx="2347.93" cy="1220.751" rx="19.151" ry="18.208"/>
				<ellipse style="fill:#BDD0FB;" cx="2347.93" cy="1645.929" rx="19.151" ry="18.208"/>
				<ellipse style="fill:#BDD0FB;" cx="2347.93" cy="2061.292" rx="19.151" ry="18.208"/>
				<ellipse style="fill:#BDD0FB;" cx="2347.93" cy="2479.529" rx="19.151" ry="18.208"/>
				<ellipse style="fill:#BDD0FB;" cx="2339.604" cy="2897.133" rx="19.151" ry="18.208"/>
				<g>
					<rect x="2435.153" y="2892.945" style="fill:#BDD0FB;" width="31.467" height="113.021"/>
					<rect x="2487.732" y="2931.789" style="fill:#BDD0FB;" width="31.468" height="74.177"/>
					<rect x="2540.312" y="2835.789" style="fill:#BDD0FB;" width="31.467" height="170.177"/>
					<rect x="2592.891" y="2965.083" style="fill:#BDD0FB;" width="31.467" height="40.883"/>
					<rect x="2645.47" y="2858.541" style="fill:#BDD0FB;" width="31.467" height="147.425"/>
					<rect x="2698.05" y="2884.066" style="fill:#BDD0FB;" width="31.467" height="121.899"/>
					<rect x="2750.629" y="2911.812" style="fill:#BDD0FB;" width="31.468" height="94.154"/>
					<rect x="2803.208" y="2801.385" style="fill:#BDD0FB;" width="31.468" height="204.581"/>
					<rect x="2855.787" y="2823.027" style="fill:#BDD0FB;" width="31.468" height="182.939"/>
					<rect x="2908.366" y="2855.766" style="fill:#BDD0FB;" width="31.467" height="150.2"/>
					<rect x="2960.945" y="2968.877" style="fill:#BDD0FB;" width="31.468" height="37.089"/>
					<rect x="3013.525" y="2896.83" style="fill:#BDD0FB;" width="31.467" height="109.136"/>
				</g>
				<g>
					<rect x="2436" y="2468.798" style="fill:#BDD0FB;" width="31.467" height="113.021"/>
					<rect x="2488.579" y="2507.642" style="fill:#BDD0FB;" width="31.468" height="74.177"/>
					<rect x="2541.158" y="2411.643" style="fill:#BDD0FB;" width="31.467" height="170.177"/>
					<rect x="2593.738" y="2540.937" style="fill:#BDD0FB;" width="31.467" height="40.883"/>
					<rect x="2646.317" y="2434.394" style="fill:#BDD0FB;" width="31.467" height="147.425"/>
					<rect x="2698.896" y="2459.92" style="fill:#BDD0FB;" width="31.467" height="121.899"/>
					<rect x="2751.475" y="2487.666" style="fill:#BDD0FB;" width="31.468" height="94.154"/>
					<rect x="2804.054" y="2377.239" style="fill:#BDD0FB;" width="31.468" height="204.581"/>
					<rect x="2856.634" y="2398.88" style="fill:#BDD0FB;" width="31.468" height="182.939"/>
					<rect x="2909.213" y="2431.62" style="fill:#BDD0FB;" width="31.467" height="150.2"/>
					<rect x="2961.792" y="2544.731" style="fill:#BDD0FB;" width="31.468" height="37.089"/>
					<rect x="3014.371" y="2472.683" style="fill:#BDD0FB;" width="31.467" height="109.136"/>
				</g>
				<g>
					<rect x="2425.021" y="2052.254" style="fill:#BDD0FB;" width="31.467" height="113.021"/>
					<rect x="2477.6" y="2091.097" style="fill:#BDD0FB;" width="31.468" height="74.177"/>
					<rect x="2530.179" y="1995.098" style="fill:#BDD0FB;" width="31.467" height="170.177"/>
					<rect x="2582.759" y="2124.392" style="fill:#BDD0FB;" width="31.467" height="40.883"/>
					<rect x="2635.338" y="2017.849" style="fill:#BDD0FB;" width="31.467" height="147.425"/>
					<rect x="2687.917" y="2043.375" style="fill:#BDD0FB;" width="31.467" height="121.899"/>
					<rect x="2740.496" y="2071.121" style="fill:#BDD0FB;" width="31.468" height="94.154"/>
					<rect x="2793.075" y="1960.694" style="fill:#BDD0FB;" width="31.468" height="204.581"/>
					<rect x="2845.655" y="1982.335" style="fill:#BDD0FB;" width="31.468" height="182.939"/>
					<rect x="2898.234" y="2015.075" style="fill:#BDD0FB;" width="31.467" height="150.2"/>
					<rect x="2950.813" y="2128.186" style="fill:#BDD0FB;" width="31.468" height="37.089"/>
					<rect x="3003.392" y="2056.138" style="fill:#BDD0FB;" width="31.467" height="109.136"/>
				</g>
				<g>
					<rect x="2425.867" y="1643.311" style="fill:#BDD0FB;" width="31.467" height="113.021"/>
					<rect x="2478.447" y="1682.154" style="fill:#BDD0FB;" width="31.468" height="74.177"/>
					<rect x="2531.026" y="1586.155" style="fill:#BDD0FB;" width="31.467" height="170.177"/>
					<rect x="2583.605" y="1715.449" style="fill:#BDD0FB;" width="31.467" height="40.883"/>
					<rect x="2636.184" y="1608.906" style="fill:#BDD0FB;" width="31.467" height="147.425"/>
					<rect x="2688.764" y="1634.432" style="fill:#BDD0FB;" width="31.467" height="121.899"/>
					<rect x="2741.343" y="1662.178" style="fill:#BDD0FB;" width="31.468" height="94.154"/>
					<rect x="2793.922" y="1551.751" style="fill:#BDD0FB;" width="31.468" height="204.581"/>
					<rect x="2846.501" y="1573.392" style="fill:#BDD0FB;" width="31.468" height="182.939"/>
					<rect x="2899.08" y="1606.132" style="fill:#BDD0FB;" width="31.467" height="150.2"/>
					<rect x="2951.659" y="1719.243" style="fill:#BDD0FB;" width="31.468" height="37.089"/>
					<rect x="3004.239" y="1647.195" style="fill:#BDD0FB;" width="31.467" height="109.136"/>
				</g>
				<g>
					<rect x="2425.021" y="1212.579" style="fill:#BDD0FB;" width="31.467" height="113.021"/>
					<rect x="2477.6" y="1251.422" style="fill:#BDD0FB;" width="31.468" height="74.177"/>
					<rect x="2530.179" y="1155.423" style="fill:#BDD0FB;" width="31.467" height="170.177"/>
					<rect x="2582.759" y="1284.717" style="fill:#BDD0FB;" width="31.467" height="40.883"/>
					<rect x="2635.338" y="1178.175" style="fill:#BDD0FB;" width="31.467" height="147.425"/>
					<rect x="2687.917" y="1203.7" style="fill:#BDD0FB;" width="31.467" height="121.899"/>
					<rect x="2740.496" y="1231.446" style="fill:#BDD0FB;" width="31.468" height="94.154"/>
					<rect x="2793.075" y="1121.019" style="fill:#BDD0FB;" width="31.468" height="204.581"/>
					<rect x="2845.655" y="1142.66" style="fill:#BDD0FB;" width="31.468" height="182.939"/>
					<rect x="2898.234" y="1175.4" style="fill:#BDD0FB;" width="31.467" height="150.2"/>
					<rect x="2950.813" y="1288.511" style="fill:#BDD0FB;" width="31.468" height="37.089"/>
					<rect x="3003.392" y="1216.463" style="fill:#BDD0FB;" width="31.467" height="109.136"/>
				</g>
				<g>
					<rect x="2425.867" y="803.636" style="fill:#BDD0FB;" width="31.467" height="113.021"/>
					<rect x="2478.447" y="842.479" style="fill:#BDD0FB;" width="31.468" height="74.177"/>
					<rect x="2531.026" y="746.48" style="fill:#BDD0FB;" width="31.467" height="170.177"/>
					<rect x="2583.605" y="875.774" style="fill:#BDD0FB;" width="31.467" height="40.883"/>
					<rect x="2636.184" y="769.231" style="fill:#BDD0FB;" width="31.467" height="147.425"/>
					<rect x="2688.764" y="794.757" style="fill:#BDD0FB;" width="31.467" height="121.899"/>
					<rect x="2741.343" y="822.503" style="fill:#BDD0FB;" width="31.468" height="94.154"/>
					<rect x="2793.922" y="712.076" style="fill:#BDD0FB;" width="31.468" height="204.581"/>
					<rect x="2846.501" y="733.717" style="fill:#BDD0FB;" width="31.468" height="182.939"/>
					<rect x="2899.08" y="766.457" style="fill:#BDD0FB;" width="31.467" height="150.2"/>
					<rect x="2951.659" y="879.568" style="fill:#BDD0FB;" width="31.468" height="37.089"/>
					<rect x="3004.239" y="807.52" style="fill:#BDD0FB;" width="31.467" height="109.136"/>
				</g>
			</g>
		</g>
		<g>
			<g>
				
					<linearGradient id="SVGID_00000048480017070811085320000006457800655022733984_" gradientUnits="userSpaceOnUse" x1="1701.6604" y1="2531.7944" x2="1691.5763" y2="3595.6191">
					<stop  offset="0" style="stop-color:#09005D"/>
					<stop  offset="0.821" style="stop-color:#170C88"/>
					<stop  offset="1" style="stop-color:#1A0F91"/>
				</linearGradient>
				<polygon style="fill:url(#SVGID_00000048480017070811085320000006457800655022733984_);" points="1454.34,2753.477 
					1403.949,3101.225 1988.577,3101.225 1912.428,2753.477 				"/>
				
					<linearGradient id="SVGID_00000011710455791887778930000008099483987205881217_" gradientUnits="userSpaceOnUse" x1="1649.3397" y1="1497.4469" x2="1624.1317" y2="2823.4402">
					<stop  offset="0" style="stop-color:#09005D"/>
					<stop  offset="1" style="stop-color:#1A0F91"/>
				</linearGradient>
				<path style="fill:url(#SVGID_00000011710455791887778930000008099483987205881217_);" d="M472.268,1640.012v1035.043
					c0,85.146,67.851,154.775,152.969,156.97c378.048,9.748,1700.278,33.386,2060.155,28.081
					c61.853-0.912,111.96-50.409,113.745-112.243c6.939-240.454,18.21-818.667-23.498-1087.109
					c-8.783-56.531-56.5-98.804-113.68-100.632c-316.757-10.133-1718.407-42.31-2078.115-34.231
					C521.805,1527.283,472.268,1577.959,472.268,1640.012z"/>
				
					<linearGradient id="SVGID_00000158017997060909004970000001739099015203287434_" gradientUnits="userSpaceOnUse" x1="2188.7329" y1="1215.0425" x2="1205.5786" y2="2848.592">
					<stop  offset="0" style="stop-color:#FF928E"/>
					<stop  offset="1" style="stop-color:#FE7062"/>
				</linearGradient>
				<path style="fill:url(#SVGID_00000158017997060909004970000001739099015203287434_);" d="M537.214,1634.974v983.362
					c0,49.713,39.906,90.22,89.613,90.963l2006.79,24.793c49.281,0.737,89.677-38.912,89.861-88.198l3.357-974.576
					c0.131-35.241-27.945-64.116-63.176-64.973l-2054.581-41.508C569.674,1563.878,537.214,1595.559,537.214,1634.974z"/>
				<path style="fill:#91B3FA;" d="M2738.587,2774.69c-0.018,0-0.036,0-0.054,0l-2201.372-37.51c-1.699-0.03-3.053-1.43-3.025-3.128
					c0.03-1.701,1.503-3.089,3.13-3.026l2201.372,37.51c1.699,0.03,3.053,1.43,3.024,3.128
					C2741.634,2773.346,2740.262,2774.69,2738.587,2774.69z"/>
				<path style="fill:#91B3FA;" d="M1659.616,2820.499c-14.327,0-25.982-11.657-25.982-25.982c0-14.325,11.655-25.982,25.982-25.982
					s25.982,11.657,25.982,25.982C1685.598,2808.843,1673.943,2820.499,1659.616,2820.499z M1659.616,2774.69
					c-10.932,0-19.828,8.895-19.828,19.827c0,10.933,8.895,19.828,19.828,19.828c10.933,0,19.828-8.895,19.828-19.828
					C1679.444,2783.585,1670.549,2774.69,1659.616,2774.69z"/>
				
					<linearGradient id="SVGID_00000052103330099646294680000003707346193450185865_" gradientUnits="userSpaceOnUse" x1="1661.4791" y1="2597.8508" x2="1691.73" y2="3278.4956">
					<stop  offset="0" style="stop-color:#09005D"/>
					<stop  offset="1" style="stop-color:#1A0F91"/>
				</linearGradient>
				<path style="fill:url(#SVGID_00000052103330099646294680000003707346193450185865_);" d="M2114.506,3193.69h-855.643
					c-23.245,0-40.701-16.548-36.207-34.323l10.979-43.421c3.302-13.058,17.668-22.645,34.731-23.177l824.871-25.74
					c17.826-0.556,33.61,8.906,37.494,22.478l19.793,69.16C2155.666,3176.635,2138.126,3193.69,2114.506,3193.69z"/>
				<path style="fill:#91B3FA;" d="M1719.47,3104.821c-1.678,0-3.05-1.349-3.076-3.032c-0.024-1.701,1.333-3.098,3.032-3.122
					l35.347-0.517c1.654-0.021,3.097,1.334,3.122,3.032c0.024,1.701-1.333,3.098-3.032,3.122l-35.348,0.517H1719.47z"/>
				<path style="fill:#91B3FA;" d="M1254.335,3170.04c-0.162,0-0.325-0.012-0.49-0.039c-1.678-0.267-2.822-1.845-2.553-3.522
					l5.043-31.583c2.732-17.111,17.288-29.711,34.613-29.967l374.905-5.481c1.671-0.084,3.098,1.334,3.122,3.032
					c0.024,1.701-1.333,3.098-3.032,3.122l-374.905,5.481c-14.328,0.21-26.367,10.632-28.626,24.78l-5.043,31.584
					C1257.129,3168.961,1255.82,3170.04,1254.335,3170.04z"/>
			</g>
			<g>
				<g style="opacity:0.53;">
					<rect x="1809.58" y="2257.146" style="fill:#FFFFFF;" width="77.642" height="401.357"/>
					<rect x="1939.312" y="2257.146" style="fill:#FFFFFF;" width="77.642" height="401.357"/>
					<rect x="2069.045" y="2257.146" style="fill:#FFFFFF;" width="77.642" height="401.357"/>
					<rect x="2198.778" y="2257.146" style="fill:#FFFFFF;" width="77.642" height="401.357"/>
					<rect x="2328.511" y="2257.146" style="fill:#FFFFFF;" width="77.642" height="401.357"/>
					<rect x="2458.243" y="2257.146" style="fill:#FFFFFF;" width="77.642" height="401.357"/>
					<rect x="2587.976" y="2257.146" style="fill:#FFFFFF;" width="77.642" height="401.357"/>
				</g>
				<rect x="1809.58" y="2448.457" style="fill:#91B3FA;" width="77.642" height="210.046"/>
				<rect x="1939.312" y="2520.646" style="fill:#91B3FA;" width="77.642" height="137.856"/>
				<rect x="2069.045" y="2342.235" style="fill:#91B3FA;" width="77.642" height="316.267"/>
				<rect x="2198.778" y="2582.523" style="fill:#91B3FA;" width="77.642" height="75.979"/>
				<rect x="2328.511" y="2384.518" style="fill:#91B3FA;" width="77.642" height="273.985"/>
				<rect x="2458.243" y="2431.957" style="fill:#91B3FA;" width="77.642" height="226.546"/>
				<rect x="2587.976" y="2483.521" style="fill:#91B3FA;" width="77.642" height="174.982"/>
			</g>
			<g>
				<g>
					<g>
						<defs>
							<path id="SVGID_00000067232705654107108770000016057433947975577006_" d="M789.126,2338.393
								c-88.62,0-160.46,71.84-160.46,160.459c0,88.62,71.84,160.46,160.46,160.46c88.62,0,160.459-71.84,160.459-160.46
								C949.586,2410.233,877.746,2338.393,789.126,2338.393z M789.126,2590.27c-50.489,0-91.417-40.929-91.417-91.418
								c0-50.488,40.929-91.417,91.417-91.417c50.487,0,91.417,40.929,91.417,91.417
								C880.543,2549.341,839.614,2590.27,789.126,2590.27z"/>
						</defs>
						
							<use xlink:href="#SVGID_00000067232705654107108770000016057433947975577006_"  style="overflow:visible;opacity:0.57;fill:#FFFFFF;"/>
						<clipPath id="SVGID_00000117636639649755317510000000315477715997179555_">
							<use xlink:href="#SVGID_00000067232705654107108770000016057433947975577006_"  style="overflow:visible;opacity:0.57;"/>
						</clipPath>
						
							<rect x="565.047" y="2463.563" style="clip-path:url(#SVGID_00000117636639649755317510000000315477715997179555_);fill:#91B3FA;" width="476.642" height="201.712"/>
					</g>
				</g>
				<g>
					<g>
						<defs>
							<path id="SVGID_00000174589753848036499130000011762666954871100555_" d="M1180.279,2338.393
								c-88.62,0-160.459,71.84-160.459,160.459c0,88.62,71.84,160.46,160.459,160.46c88.62,0,160.46-71.84,160.46-160.46
								C1340.739,2410.233,1268.899,2338.393,1180.279,2338.393z M1180.279,2590.27c-50.488,0-91.417-40.929-91.417-91.418
								c0-50.488,40.929-91.417,91.417-91.417c50.489,0,91.417,40.929,91.417,91.417
								C1271.696,2549.341,1230.768,2590.27,1180.279,2590.27z"/>
						</defs>
						
							<use xlink:href="#SVGID_00000174589753848036499130000011762666954871100555_"  style="overflow:visible;opacity:0.57;fill:#FFFFFF;"/>
						<clipPath id="SVGID_00000112593022668413471250000007547662218192030387_">
							<use xlink:href="#SVGID_00000174589753848036499130000011762666954871100555_"  style="overflow:visible;opacity:0.57;"/>
						</clipPath>
						
							<rect x="956.2" y="2385.596" style="clip-path:url(#SVGID_00000112593022668413471250000007547662218192030387_);fill:#91B3FA;" width="476.643" height="279.679"/>
					</g>
				</g>
				<g>
					<g>
						<defs>
							<path id="SVGID_00000129923591104737019610000017390090300070940821_" d="M1571.433,2338.393
								c-88.62,0-160.46,71.84-160.46,160.459c0,88.62,71.839,160.46,160.46,160.46c88.62,0,160.459-71.84,160.459-160.46
								C1731.892,2410.233,1660.052,2338.393,1571.433,2338.393z M1571.433,2590.27c-50.489,0-91.418-40.929-91.418-91.418
								c0-50.488,40.929-91.417,91.418-91.417c50.488,0,91.417,40.929,91.417,91.417
								C1662.85,2549.341,1621.921,2590.27,1571.433,2590.27z"/>
						</defs>
						
							<use xlink:href="#SVGID_00000129923591104737019610000017390090300070940821_"  style="overflow:visible;opacity:0.57;fill:#FFFFFF;"/>
						<clipPath id="SVGID_00000008864000467152578660000005992341772504782223_">
							<use xlink:href="#SVGID_00000129923591104737019610000017390090300070940821_"  style="overflow:visible;opacity:0.57;"/>
						</clipPath>
						
							<rect x="1347.353" y="2564.42" style="clip-path:url(#SVGID_00000008864000467152578660000005992341772504782223_);fill:#91B3FA;" width="476.642" height="100.856"/>
					</g>
				</g>
			</g>
			<g style="opacity:0.48;">
				<path style="fill:#FFFFFF;" d="M1855.715,1703.053H1572.42c-11.851,0-21.458,8.811-21.458,19.681
					c0,10.869,9.607,19.68,21.458,19.68h283.295c11.851,0,21.458-8.811,21.458-19.68
					C1877.173,1711.864,1867.566,1703.053,1855.715,1703.053z"/>
				<path style="fill:#FFFFFF;" d="M1855.715,1790.195H1572.42c-11.851,0-21.458,8.811-21.458,19.681s9.607,19.681,21.458,19.681
					h283.295c11.851,0,21.458-8.811,21.458-19.681S1867.566,1790.195,1855.715,1790.195z"/>
				<path style="fill:#FFFFFF;" d="M1855.715,2138.767H1572.42c-11.851,0-21.458,8.811-21.458,19.68
					c0,10.87,9.607,19.681,21.458,19.681h283.295c11.851,0,21.458-8.811,21.458-19.681
					C1877.173,2147.578,1867.566,2138.767,1855.715,2138.767z"/>
				<path style="fill:#FFFFFF;" d="M1855.715,2051.624H1572.42c-11.851,0-21.458,8.811-21.458,19.681
					c0,10.869,9.607,19.68,21.458,19.68h283.295c11.851,0,21.458-8.811,21.458-19.68
					C1877.173,2060.435,1867.566,2051.624,1855.715,2051.624z"/>
				<path style="fill:#FFFFFF;" d="M1855.715,1964.481H1572.42c-11.851,0-21.458,8.811-21.458,19.681
					c0,10.869,9.607,19.68,21.458,19.68h283.295c11.851,0,21.458-8.811,21.458-19.68
					C1877.173,1973.292,1867.566,1964.481,1855.715,1964.481z"/>
			</g>
			<g style="opacity:0.48;">
				<path style="fill:#FFFFFF;" d="M2249.514,1703.053h-283.295c-11.851,0-21.458,8.811-21.458,19.681
					c0,10.869,9.607,19.68,21.458,19.68h283.295c11.851,0,21.458-8.811,21.458-19.68
					C2270.972,1711.864,2261.365,1703.053,2249.514,1703.053z"/>
				<path style="fill:#FFFFFF;" d="M2249.514,1790.195h-283.295c-11.851,0-21.458,8.811-21.458,19.681s9.607,19.681,21.458,19.681
					h283.295c11.851,0,21.458-8.811,21.458-19.681S2261.365,1790.195,2249.514,1790.195z"/>
				<path style="fill:#FFFFFF;" d="M2249.514,2138.767h-283.295c-11.851,0-21.458,8.811-21.458,19.68
					c0,10.87,9.607,19.681,21.458,19.681h283.295c11.851,0,21.458-8.811,21.458-19.681
					C2270.972,2147.578,2261.365,2138.767,2249.514,2138.767z"/>
				<path style="fill:#FFFFFF;" d="M2249.514,2051.624h-283.295c-11.851,0-21.458,8.811-21.458,19.681
					c0,10.869,9.607,19.68,21.458,19.68h283.295c11.851,0,21.458-8.811,21.458-19.68
					C2270.972,2060.435,2261.365,2051.624,2249.514,2051.624z"/>
				<path style="fill:#FFFFFF;" d="M2249.514,1964.481h-283.295c-11.851,0-21.458,8.811-21.458,19.681
					c0,10.869,9.607,19.68,21.458,19.68h283.295c11.851,0,21.458-8.811,21.458-19.68
					C2270.972,1973.292,2261.365,1964.481,2249.514,1964.481z"/>
			</g>
			<g style="opacity:0.48;">
				<path style="fill:#FFFFFF;" d="M2643.313,1703.053h-283.294c-11.851,0-21.458,8.811-21.458,19.681
					c0,10.869,9.607,19.68,21.458,19.68h283.294c11.851,0,21.458-8.811,21.458-19.68
					C2664.771,1711.864,2655.164,1703.053,2643.313,1703.053z"/>
				<path style="fill:#FFFFFF;" d="M2643.313,1790.195h-283.294c-11.851,0-21.458,8.811-21.458,19.681s9.607,19.681,21.458,19.681
					h283.294c11.851,0,21.458-8.811,21.458-19.681S2655.164,1790.195,2643.313,1790.195z"/>
				<path style="fill:#FFFFFF;" d="M2643.313,2138.767h-283.294c-11.851,0-21.458,8.811-21.458,19.68
					c0,10.87,9.607,19.681,21.458,19.681h283.294c11.851,0,21.458-8.811,21.458-19.681
					C2664.771,2147.578,2655.164,2138.767,2643.313,2138.767z"/>
				<path style="fill:#FFFFFF;" d="M2643.313,2051.624h-283.294c-11.851,0-21.458,8.811-21.458,19.681
					c0,10.869,9.607,19.68,21.458,19.68h283.294c11.851,0,21.458-8.811,21.458-19.68
					C2664.771,2060.435,2655.164,2051.624,2643.313,2051.624z"/>
				<path style="fill:#FFFFFF;" d="M2643.313,1964.481h-283.294c-11.851,0-21.458,8.811-21.458,19.681
					c0,10.869,9.607,19.68,21.458,19.68h283.294c11.851,0,21.458-8.811,21.458-19.68
					C2664.771,1973.292,2655.164,1964.481,2643.313,1964.481z"/>
			</g>
			<g>
				<path style="fill:#91B3FA;" d="M726.757,2203.6h670.098c21.368,0,38.69-17.322,38.69-38.69v-1003.65
					c0-21.328-17.259-38.633-38.586-38.69l-675.457-1.813c-21.489-0.058-38.908,17.407-38.793,38.896l5.359,1005.463
					C688.181,2186.403,705.47,2203.6,726.757,2203.6z"/>
				<path style="opacity:0.6;fill:#FFFFFF;" d="M759.594,1170.279l599.175,3.689c21.658,0.133,39.117,17.781,39.016,39.44
					l-4.181,900.812c-0.099,21.332-17.214,38.681-38.542,39.07L772.89,2163.91c-21.743,0.397-39.666-16.957-39.971-38.702
					l-12.821-915.122C719.79,1188.097,737.603,1170.143,759.594,1170.279z"/>
				<path style="opacity:0.6;fill:#FFFFFF;" d="M783.956,1220.746v4.131c0,6.486,5.258,11.745,11.745,11.745h461.661
					c6.486,0,11.744-5.258,11.744-11.745v-4.131c0-6.486-5.258-11.745-11.744-11.745H795.7
					C789.214,1209.002,783.956,1214.26,783.956,1220.746z"/>
				<path style="opacity:0.6;fill:#FFFFFF;" d="M835.466,1272.704L835.466,1272.704c0.333,6.148,5.358,10.995,11.514,11.107
					l403.745,7.358c6.569,0.12,11.959-5.172,11.959-11.742v-0.959c0-6.414-5.146-11.641-11.558-11.743l-403.746-6.399
					C840.571,1260.218,835.097,1265.905,835.466,1272.704z"/>
				<path style="opacity:0.61;fill:#FFFFFF;" d="M794.256,2133.698c-18.47,0-33.69-14.907-34.017-33.42l-13.101-736.755
					c-0.334-18.723,14.63-34.255,33.356-34.621l545.136-10.612c9.133-0.114,17.704,3.196,24.255,9.502
					c6.551,6.306,10.253,14.781,10.425,23.871l14.051,740.81c0.174,9.134-3.232,17.774-9.59,24.332
					c-6.357,6.557-14.886,10.226-24.019,10.337l-546.087,6.554C794.53,2133.695,794.391,2133.698,794.256,2133.698z
					 M1326.303,1330.542c-0.145,0-0.289,0.003-0.434,0.006l-545.136,10.612c-11.98,0.23-21.553,10.167-21.34,22.147l0,0
					l13.101,736.755c0.211,11.839,9.948,21.377,21.764,21.377c0.087,0,0.174,0,0.26-0.003l546.088-6.554
					c5.842-0.069,11.298-2.418,15.365-6.611c4.067-4.196,6.246-9.723,6.135-15.565l-14.051-740.81
					c-0.111-5.815-2.479-11.238-6.669-15.269C1337.299,1332.694,1331.957,1330.542,1326.303,1330.542z"/>
				<path style="opacity:0.61;fill:#FFFFFF;" d="M1355.07,1404.671H760.339c-3.385,0-6.129-2.744-6.129-6.129
					s2.744-6.129,6.129-6.129h594.731c3.385,0,6.129,2.744,6.129,6.129S1358.455,1404.671,1355.07,1404.671z"/>
				<g>
					<path style="opacity:0.73;fill:#FFFFFF;" d="M1074.42,1991.096c-128.864,0-233.702-104.839-233.702-233.704
						c0-128.864,104.839-233.702,233.702-233.702c128.865,0,233.703,104.839,233.703,233.702
						C1308.123,1886.258,1203.285,1991.096,1074.42,1991.096z M1074.42,1596.981c-88.451,0-160.412,71.96-160.412,160.412
						c0,88.452,71.961,160.413,160.412,160.413c88.452,0,160.412-71.961,160.412-160.413
						C1234.833,1668.941,1162.872,1596.981,1074.42,1596.981z"/>
					
						<linearGradient id="SVGID_00000072266073243409422300000001261913506113520314_" gradientUnits="userSpaceOnUse" x1="1398.761" y1="1661.5807" x2="851.9767" y2="2188.197">
						<stop  offset="0" style="stop-color:#FF928E"/>
						<stop  offset="1" style="stop-color:#FE7062"/>
					</linearGradient>
					<path style="fill:url(#SVGID_00000072266073243409422300000001261913506113520314_);" d="M1307.47,1739.909l-73.086,5.484
						c0.294,3.963,0.448,7.963,0.448,12c0,19.114-3.366,37.453-9.527,54.467l68.939,24.885
						c8.975-24.787,13.879-51.507,13.879-79.352C1308.123,1751.511,1307.9,1745.682,1307.47,1739.909z"/>
					
						<linearGradient id="SVGID_00000173880349712336534210000004646714263728423567_" gradientUnits="userSpaceOnUse" x1="1275.4491" y1="1203.9302" x2="1093.9349" y2="1703.6534">
						<stop  offset="0" style="stop-color:#FF928E"/>
						<stop  offset="1" style="stop-color:#FE7062"/>
					</linearGradient>
					<path style="fill:url(#SVGID_00000173880349712336534210000004646714263728423567_);" d="M1074.42,1917.806
						c-88.451,0-160.412-71.961-160.412-160.413c0-88.452,71.961-160.412,160.412-160.412c13.476,0,26.565,1.679,39.079,4.823
						l17.855-71.087c-18.232-4.581-37.302-7.027-56.934-7.027c-128.864,0-233.702,104.839-233.702,233.702
						c0,128.866,104.839,233.704,233.702,233.704c101.019,0,187.265-64.43,219.824-154.352l-68.939-24.885
						C1202.957,1873.58,1143.759,1917.806,1074.42,1917.806z"/>
					
						<linearGradient id="SVGID_00000054976685993294750440000002337227239253025152_" gradientUnits="userSpaceOnUse" x1="1380.417" y1="1524.7096" x2="1168.4716" y2="1865.6648">
						<stop  offset="0" style="stop-color:#FEBBBA"/>
						<stop  offset="1" style="stop-color:#FF928E"/>
					</linearGradient>
					<path style="fill:url(#SVGID_00000054976685993294750440000002337227239253025152_);" d="M1234.385,1745.392l73.086-5.484
						c-2.247-30.235-10.276-58.883-22.977-84.85l-65.88,32.094C1227.33,1704.975,1232.842,1724.639,1234.385,1745.392z"/>
				</g>
			</g>
		</g>
		<g>
			
				<linearGradient id="SVGID_00000053528337351216199270000016911027628147279245_" gradientUnits="userSpaceOnUse" x1="9851.7139" y1="3071.7051" x2="9353.6338" y2="3613.4773" gradientTransform="matrix(-1 0.0095 0.0095 1 12543.6113 -63.4747)">
				<stop  offset="0" style="stop-color:#09005D"/>
				<stop  offset="1" style="stop-color:#1A0F91"/>
			</linearGradient>
			<path style="fill:url(#SVGID_00000053528337351216199270000016911027628147279245_);" d="M2878.906,3140.678
				c0,0,5.437,29.154,8.241,58.038c1.097,11.288-7.52,21.18-18.846,21.761c-38.481,1.97-120.797,5.874-150.358,4.837
				c-4.444-0.156-7.391-4.676-5.787-8.823c1.344-3.475,3.975-6.3,7.346-7.888l135.422-63.812L2878.906,3140.678z"/>
			
				<linearGradient id="SVGID_00000005228815941951449350000006947631642707817643_" gradientUnits="userSpaceOnUse" x1="9690.0449" y1="3111.9382" x2="9734.2861" y2="3111.9382" gradientTransform="matrix(-1 0.0095 0.0095 1 12543.6113 -63.4747)">
				<stop  offset="0" style="stop-color:#A22B25"/>
				<stop  offset="1" style="stop-color:#C0423C"/>
			</linearGradient>
			<path style="fill:url(#SVGID_00000005228815941951449350000006947631642707817643_);" d="M2882.969,3123.48l-3.811,34.969
				c0,0-23.721,11.32-40.112-1.015l9.496-39.021L2882.969,3123.48z"/>
			
				<linearGradient id="SVGID_00000093171841248871144760000010273750667876193959_" gradientUnits="userSpaceOnUse" x1="9890.959" y1="2458.9778" x2="9467.1123" y2="3033.4482" gradientTransform="matrix(-1 0.0095 0.0095 1 12543.6113 -63.4747)">
				<stop  offset="0" style="stop-color:#09005D"/>
				<stop  offset="1" style="stop-color:#1A0F91"/>
			</linearGradient>
			<path style="fill:url(#SVGID_00000093171841248871144760000010273750667876193959_);" d="M2873.589,2466.806
				c1.877,9.105,13.951,455.111-31.824,655.471c-0.747,3.269,0.939,6.615,4.055,7.854c7.342,2.918,21.721,7.109,38.909,7.521
				c5.323,0.128,10.061-3.376,11.513-8.498c13.187-46.511,76.283-279.515,82.685-501.584c7.154-248.14-0.081-8.446-0.081-8.446
				l-7.046-153.275L2873.589,2466.806z"/>
			
				<linearGradient id="SVGID_00000109022188850681649800000009653808279314382214_" gradientUnits="userSpaceOnUse" x1="9739.9775" y1="2968.9622" x2="9241.877" y2="3510.7566" gradientTransform="matrix(-1 0.0095 0.0095 1 12543.6113 -63.4747)">
				<stop  offset="0" style="stop-color:#09005D"/>
				<stop  offset="1" style="stop-color:#1A0F91"/>
			</linearGradient>
			<path style="fill:url(#SVGID_00000109022188850681649800000009653808279314382214_);" d="M3035.519,3154.421
				c0,0,8.352,14.665,16.675,53.763c1.503,7.061-3.376,13.879-10.553,14.655c-12.7,1.371-32.253,3.165-47.93,3.207
				c-7.226,0.019-12.925-6.219-12.124-13.401c1.6-14.315,6.785-37.828,23.321-56.272L3035.519,3154.421z"/>
			
				<linearGradient id="SVGID_00000067213017092663086010000003064887360553475245_" gradientUnits="userSpaceOnUse" x1="9530.5908" y1="3109.6631" x2="9568.7891" y2="3109.6631" gradientTransform="matrix(-1 0.0095 0.0095 1 12543.6113 -63.4747)">
				<stop  offset="0" style="stop-color:#A22B25"/>
				<stop  offset="1" style="stop-color:#C0423C"/>
			</linearGradient>
			<path style="fill:url(#SVGID_00000067213017092663086010000003064887360553475245_);" d="M3042.302,3109.423l-9.18,52.917
				c0,0-9.508,7.213-28.498,2.231l4.081-56.879L3042.302,3109.423z"/>
			
				<linearGradient id="SVGID_00000119090419848340456260000014958843426060399001_" gradientUnits="userSpaceOnUse" x1="9815.4189" y1="2403.2444" x2="9391.5762" y2="2977.7085" gradientTransform="matrix(-1 0.0095 0.0095 1 12543.6113 -63.4747)">
				<stop  offset="0" style="stop-color:#09005D"/>
				<stop  offset="1" style="stop-color:#1A0F91"/>
			</linearGradient>
			<path style="fill:url(#SVGID_00000119090419848340456260000014958843426060399001_);" d="M3062.449,2478.694
				c41.243,234.985-2.91,581.784-18.269,649.725c-0.94,4.16-4.26,7.371-8.459,8.109c-7.133,1.252-18.886,2.331-30.515-0.927
				c-4.006-1.122-6.848-4.698-7.05-8.855c-2.67-54.784-2.016-391.269-39.621-523.889c-1.906-6.721-6.077-12.559-11.809-16.552
				l-71.006-49.466l-6.181-80.995L3062.449,2478.694z"/>
			<g>
				
					<linearGradient id="SVGID_00000040533774898406229670000004990837730307596975_" gradientUnits="userSpaceOnUse" x1="2641.7944" y1="2263.3286" x2="3075.3213" y2="2263.3286">
					<stop  offset="0" style="stop-color:#DAE3FE"/>
					<stop  offset="1" style="stop-color:#E9EFFD"/>
				</linearGradient>
				<path style="fill:url(#SVGID_00000040533774898406229670000004990837730307596975_);" d="M2809.698,2035.11
					c116.851-3.046,246.115,28.341,246.115,28.341c36.776,202.937,10.268,437.669,10.268,437.669
					c-90.251,24.59-192.68-12.67-192.68-12.67c-15.849-84.818-88.294-323.26-88.294-323.26
					c-57.169-6.542-104.367-22.568-143.312-43.979c29.221-34.533,42.736-78.249,48.54-104.069
					C2731.778,2029.589,2773.656,2036.05,2809.698,2035.11z"/>
				
					<linearGradient id="SVGID_00000057851626945825513690000017098165845964122292_" gradientUnits="userSpaceOnUse" x1="9872.1523" y1="1957.6871" x2="10098.1904" y2="1957.6871" gradientTransform="matrix(-1 0.0095 0.0095 1 12543.6113 -63.4747)">
					<stop  offset="0" style="stop-color:#A22B25"/>
					<stop  offset="1" style="stop-color:#C0423C"/>
				</linearGradient>
				<path style="fill:url(#SVGID_00000057851626945825513690000017098165845964122292_);" d="M2462.842,1866.261
					c11.348-13.977,25.941-7.555,25.941-7.555c17.892,72.484,108.631,130.528,201.551,158.437
					c-5.804,25.82-19.318,69.536-48.54,104.069C2487.216,2036.228,2462.842,1866.261,2462.842,1866.261z"/>
			</g>
			<g>
				
					<linearGradient id="SVGID_00000071518884012202140320000009293059552096175003_" gradientUnits="userSpaceOnUse" x1="398.8954" y1="1918.8707" x2="550.5695" y2="2263.9634" gradientTransform="matrix(1 -0.0095 0.0095 1 2096.8855 36.7017)">
					<stop  offset="0" style="stop-color:#A22B25"/>
					<stop  offset="1" style="stop-color:#C0423C"/>
				</linearGradient>
				<path style="fill:url(#SVGID_00000071518884012202140320000009293059552096175003_);" d="M2465.662,1869.76
					c-1.165,3.831,12.802,9.513,20.844-6.184c0.214-7.489,4.461-39.602-0.07-45.658c-24.133-32.252-70.71-72.526-70.71-72.526
					c-7.733,7.777-1.23,15.282-1.23,15.282l22.63,23.128c-4.606,8.513-10.255,15.717-12.836,25.987
					c-1.955,7.777-0.635,16.056,3.351,23.079c4.001,7.048,9.455,16.208,14.596,23.368
					C2451.969,1869.788,2465.662,1869.76,2465.662,1869.76z"/>
				
					<linearGradient id="SVGID_00000034071600901706177480000000225592907683550863_" gradientUnits="userSpaceOnUse" x1="10097.1074" y1="1804.875" x2="10160.3955" y2="1707.569" gradientTransform="matrix(-1 0.0095 0.0095 1 12543.6113 -63.4747)">
					<stop  offset="0" style="stop-color:#A22B25"/>
					<stop  offset="1" style="stop-color:#C0423C"/>
				</linearGradient>
				<path style="fill:url(#SVGID_00000034071600901706177480000000225592907683550863_);" d="M2447.07,1798.854l20.584,17.115
					l6.575,17.172l-18.013,20.37c0,0-6.448-34.136-11.067-41.494C2440.53,1804.66,2442.855,1801.059,2447.07,1798.854z"/>
			</g>
			
				<linearGradient id="SVGID_00000157283606166867819770000014618730661979060925_" gradientUnits="userSpaceOnUse" x1="3012.0659" y1="2160.1213" x2="3184.5332" y2="2160.1213">
				<stop  offset="0" style="stop-color:#DAE3FE"/>
				<stop  offset="1" style="stop-color:#E9EFFD"/>
			</linearGradient>
			<path style="fill:url(#SVGID_00000157283606166867819770000014618730661979060925_);" d="M3012.066,2177.043l43.747-113.592
				c0,0,109.871,73.13,128.721,167c-20.612,1.716-58.094,7.439-94.655,26.34C3081.381,2212.463,3012.066,2177.043,3012.066,2177.043
				z"/>
			
				<linearGradient id="SVGID_00000080166861673675871670000016621602289161765281_" gradientUnits="userSpaceOnUse" x1="9377.5342" y1="2277.834" x2="9663.5791" y2="2277.834" gradientTransform="matrix(-1 0.0095 0.0095 1 12543.6113 -63.4747)">
				<stop  offset="0" style="stop-color:#A22B25"/>
				<stop  offset="1" style="stop-color:#C0423C"/>
			</linearGradient>
			<path style="fill:url(#SVGID_00000080166861673675871670000016621602289161765281_);" d="M2917.685,2284.438
				c0,0,123.224,68.097,164.014,8.557c8.468-12.364,10.405-24.588,8.179-36.204c36.562-18.901,74.043-24.624,94.655-26.34
				c5.683,28.299,3.109,58.479-13.259,89.112c-71.176,133.203-269.521-4.752-269.521-4.752L2917.685,2284.438z"/>
			
				<linearGradient id="SVGID_00000027596292049566471280000010864346624044629124_" gradientUnits="userSpaceOnUse" x1="9597.1875" y1="1972.0402" x2="9710.2852" y2="1972.0402" gradientTransform="matrix(-1 0.0095 0.0095 1 12543.6113 -63.4747)">
				<stop  offset="0" style="stop-color:#A22B25"/>
				<stop  offset="1" style="stop-color:#C0423C"/>
			</linearGradient>
			<path style="fill:url(#SVGID_00000027596292049566471280000010864346624044629124_);" d="M2927.172,1939.1l38.213,107.186
				c0.633,1.775-0.08,3.755-1.722,4.683c-10.083,5.701-46.448,22.249-90.725-5.234c-4.613-2.863-7.779-7.574-8.527-12.951
				l-12.929-92.961L2927.172,1939.1z"/>
			<g>
				
					<linearGradient id="SVGID_00000126318180333976630440000018444983635467143572_" gradientUnits="userSpaceOnUse" x1="1639.9816" y1="5087.9971" x2="1597.7188" y2="4948.604" gradientTransform="matrix(-0.7523 -0.6588 -0.6588 0.7523 7410.2085 -818.1582)">
					<stop  offset="0" style="stop-color:#A22B25"/>
					<stop  offset="1" style="stop-color:#C0423C"/>
				</linearGradient>
				<path style="fill:url(#SVGID_00000126318180333976630440000018444983635467143572_);" d="M2845.31,1840.287
					c0,0-40.102,77.256-34.571,108.256c5.53,31,56.117,28.287,100.069,2.648l30.089-83.293L2845.31,1840.287z"/>
				
					<linearGradient id="SVGID_00000052096649897049717140000011522025442310345144_" gradientUnits="userSpaceOnUse" x1="1601.855" y1="4845.1255" x2="1637.2072" y2="5046.7637" gradientTransform="matrix(-0.7523 -0.6588 -0.6588 0.7523 7410.2085 -818.1582)">
					<stop  offset="0" style="stop-color:#09005D"/>
					<stop  offset="1" style="stop-color:#1A0F91"/>
				</linearGradient>
				<path style="fill:url(#SVGID_00000052096649897049717140000011522025442310345144_);" d="M2908.466,1910.45
					c-1.803-0.778-2.487-2.97-1.427-4.624c3.224-5.029,9.259-15.283,11.131-24.229c0,0,7.295-4.771-18.788-10.752
					c-26.084-5.981-64.986-15.279-73.354-37.353c-8.159-21.522,12.219-76.035,45.971-33.077c1.284,1.635,3.769,1.647,5.02-0.013
					c5.397-7.165,19.625-22.067,39.659-13.307c18.748,8.199,20.981,21.858,20.791,28.756c-0.056,2.029,1.773,3.589,3.763,3.189
					c9.421-1.89,32.056-3.652,42.85,19.482c8.89,19.055,3.333,29.943-1.771,35.29c-1.654,1.733-0.895,4.553,1.402,5.231
					c6.222,1.84,14.281,7.024,13.618,21.564c-0.917,20.102-23.397,18.546-29.801,17.691c-1.049-0.139-2.102,0.23-2.804,1.022
					c-5.426,6.121-29.887,32.124-56.599,35.485c-2.313,0.291-4.13-1.978-3.392-4.19l11.252-33.75
					c0.523-1.567-0.241-3.274-1.758-3.929L2908.466,1910.45z"/>
				
					<linearGradient id="SVGID_00000167394989300141500970000016171005937208623509_" gradientUnits="userSpaceOnUse" x1="1596.7794" y1="5087.3462" x2="1558.7549" y2="4961.9321" gradientTransform="matrix(-0.7523 -0.6588 -0.6588 0.7523 7410.2085 -818.1582)">
					<stop  offset="0" style="stop-color:#A22B25"/>
					<stop  offset="1" style="stop-color:#C0423C"/>
				</linearGradient>
				<path style="fill:url(#SVGID_00000167394989300141500970000016171005937208623509_);" d="M2903.859,1915.269
					c0,0,28.884-20.225,31.169-3.447c2.284,16.778-25.949,24.582-40.03,18.453L2903.859,1915.269z"/>
			</g>
			<g>
				<g>
					
						<linearGradient id="SVGID_00000127757920244431707600000017436596576180687753_" gradientUnits="userSpaceOnUse" x1="9450.3525" y1="2121.6924" x2="9608.1914" y2="2779.3564" gradientTransform="matrix(-1 0 0 1 12275.3223 0)">
						<stop  offset="0" style="stop-color:#09005D"/>
						<stop  offset="1" style="stop-color:#1A0F91"/>
					</linearGradient>
					<path style="fill:url(#SVGID_00000127757920244431707600000017436596576180687753_);" d="M2942.868,2392.058l-67.125-234.416
						c-0.762-2.661-3.032-4.602-5.782-4.922c-12.162-1.419-47.403-5.403-88.091-8.844c-49.011-4.146-105.927-7.504-139.938-4.647
						c-4.835,0.406-7.757,5.52-5.607,9.87c19.34,39.129,98.897,198.297,138.736,250.438c1.32,1.727,3.361,2.737,5.535,2.717
						l155.741-1.449C2940.87,2400.762,2944.116,2396.415,2942.868,2392.058z"/>
					
						<linearGradient id="SVGID_00000091697790057081702970000004862240546106931876_" gradientUnits="userSpaceOnUse" x1="9342.1963" y1="2295.6794" x2="9431.625" y2="2295.6794" gradientTransform="matrix(-1 0 0 1 12275.3223 0)">
						<stop  offset="0" style="stop-color:#A22B25"/>
						<stop  offset="1" style="stop-color:#C0423C"/>
					</linearGradient>
					<path style="fill:url(#SVGID_00000091697790057081702970000004862240546106931876_);" d="M2926.65,2335.423
						c0,0,9.351-38.449,5.579-52.09c-3.772-13.642-11.08-31.18-35.438-27.282c-24.359,3.897-53.093,14.159-53.093,14.159
						s1.451,17.768,19.965,12.036l-11.481,8.883c0,0,1.641,14.226,17.279,6.626l-10.678,11.781c0,0,6.716,11.684,18.221,4.19
						C2888.509,2306.23,2894.024,2340.053,2926.65,2335.423z"/>
				</g>
				<path style="fill:#91B3FA;" d="M2786.346,2213.854c0,10.883-8.822,19.704-19.704,19.704c-10.882,0-19.704-8.822-19.704-19.704
					c0-10.883,8.822-19.704,19.704-19.704C2777.524,2194.149,2786.346,2202.97,2786.346,2213.854z"/>
				<path style="fill:#91B3FA;" d="M2868.148,2226.843l-13.667-46.361c-1.677-5.693-6.254-9.968-11.944-11.157
					c-42.835-8.937-160.078-10.832-161.257-10.85l0.078-5.238c4.836,0.074,118.926,1.924,162.248,10.963
					c7.582,1.581,13.674,7.253,15.901,14.8l13.667,46.361L2868.148,2226.843z"/>
			</g>
		</g>
	</g>
</g>
</svg>
